<svg width="411" height="731" viewBox="0 0 411 731" fill="none" xmlns="http://www.w3.org/2000/svg">
<g clip-path="url(#clip0_31_2)">
<rect width="411" height="731" fill="url(#paint0_linear_31_2)"/>
<circle cx="213.5" cy="245.5" r="85.5" fill="url(#paint1_linear_31_2)"/>
<circle cx="213.5" cy="245.5" r="236.5" fill="url(#paint2_radial_31_2)"/>
<path d="M298.16 490.363C316.36 486.388 332.539 453 374.332 453C416.126 453 435 489.155 435 489.155L391.858 534.071C305.126 538.907 130.649 548.46 126.604 547.983C122.56 547.506 108.516 520.225 102 506.644C114.92 508.234 150.332 510.46 188.62 506.644C236.481 501.875 242.745 502.466 298.16 490.363Z" fill="url(#paint3_linear_31_2)"/>
<path d="M101.182 444.54C36.6824 395.5 45 370 -17 370C-79 370 -101.818 441.501 -101.818 441.501L-37.8176 554.501C90.8491 566.668 349.682 590.701 355.682 589.501C361.682 588.301 382.516 519.668 392.183 485.501C373.016 489.501 320.482 495.101 263.682 485.501C192.682 473.501 151.553 482.838 101.182 444.54Z" fill="url(#paint4_linear_31_2)"/>
<rect x="-29" y="490" width="514" height="241" fill="url(#paint5_linear_31_2)"/>
</g>
<defs>
<linearGradient id="paint0_linear_31_2" x1="205.5" y1="0" x2="205.5" y2="731" gradientUnits="userSpaceOnUse">
<stop stop-color="#0070F0"/>
<stop offset="0.466346" stop-color="#00BBFF"/>
</linearGradient>
<linearGradient id="paint1_linear_31_2" x1="277.941" y1="192.01" x2="117.47" y2="331" gradientUnits="userSpaceOnUse">
<stop stop-color="white"/>
<stop offset="1" stop-color="white"/>
</linearGradient>
<radialGradient id="paint2_radial_31_2" cx="0" cy="0" r="1" gradientUnits="userSpaceOnUse" gradientTransform="translate(214.883 246.883) rotate(137.824) scale(218.35)">
<stop stop-color="white"/>
<stop offset="1" stop-color="white" stop-opacity="0"/>
</radialGradient>
<linearGradient id="paint3_linear_31_2" x1="400" y1="537" x2="328" y2="453" gradientUnits="userSpaceOnUse">
<stop offset="0.173077" stop-color="#334B36"/>
<stop offset="0.961538" stop-color="#6CDFA9" stop-opacity="0.56"/>
</linearGradient>
<linearGradient id="paint4_linear_31_2" x1="72.7194" y1="421.511" x2="-5.35556" y2="502.488" gradientUnits="userSpaceOnUse">
<stop stop-color="#1FDF86" stop-opacity="0.89"/>
<stop offset="0.818764" stop-color="#315E45"/>
</linearGradient>
<linearGradient id="paint5_linear_31_2" x1="228" y1="490" x2="228" y2="731" gradientUnits="userSpaceOnUse">
<stop stop-color="#81FFFF"/>
<stop offset="1" stop-color="#2155FF"/>
</linearGradient>
<clipPath id="clip0_31_2">
<rect width="411" height="731" fill="white"/>
</clipPath>
</defs>
</svg>
