<svg width="411" height="731" viewBox="0 0 411 731" fill="none" xmlns="http://www.w3.org/2000/svg">
<g clip-path="url(#clip0_33_50)">
<path d="M214 455V500H239L214 455Z" fill="white"/>
<path d="M313.444 572.029C344.375 545.004 371.869 318 442.896 318C513.923 318 546 563.815 546 563.815L472.682 869.192C325.281 902.072 -155.912 974.137 -162.786 970.894C-169.659 967.651 -8.85126 775.057 -19.9254 682.723C2.03192 693.533 62.214 708.666 127.284 682.723C208.621 650.293 219.268 654.313 313.444 572.029Z" fill="url(#paint0_linear_33_50)"/>
<path d="M238.957 507H192C192.537 512.41 194.974 523.23 200.425 523.23C207.239 523.23 218.886 524.963 229.417 523.23C237.842 521.843 239.288 511.832 238.957 507Z" fill="url(#paint1_linear_33_50)"/>
<rect x="-17" y="416" width="488" height="337" fill="url(#paint2_linear_33_50)"/>
</g>
<defs>
<linearGradient id="paint0_linear_33_50" x1="237.113" y1="419.983" x2="372.849" y2="704.952" gradientUnits="userSpaceOnUse">
<stop stop-color="#1D8DDD"/>
<stop offset="0.975371" stop-color="#115D79"/>
</linearGradient>
<linearGradient id="paint1_linear_33_50" x1="215.5" y1="507" x2="215.5" y2="524" gradientUnits="userSpaceOnUse">
<stop stop-color="#E97B2C"/>
<stop offset="1" stop-color="#834519"/>
</linearGradient>
<linearGradient id="paint2_linear_33_50" x1="227" y1="416" x2="227" y2="753" gradientUnits="userSpaceOnUse">
<stop stop-color="#0000FF" stop-opacity="0"/>
<stop offset="1" stop-color="#0A0A10"/>
</linearGradient>
<clipPath id="clip0_33_50">
<rect width="411" height="731" fill="white"/>
</clipPath>
</defs>
</svg>
