<svg width="411" height="731" viewBox="0 0 411 731" fill="none" xmlns="http://www.w3.org/2000/svg">
<g clip-path="url(#clip0_33_40)">
<path d="M214 455V500H239L214 455Z" fill="white"/>
<path d="M238.957 507H192C192.537 512.41 194.974 523.23 200.425 523.23C207.239 523.23 218.886 524.963 229.417 523.23C237.842 521.843 239.288 511.832 238.957 507Z" fill="url(#paint0_linear_33_40)"/>
<path d="M324 577.073C415 477.759 341.792 340.759 463.896 331.259C586 321.759 567 577.073 567 577.073L493.682 882.451C346.281 915.331 -134.912 987.396 -141.786 984.153C-148.659 980.91 -174.926 802.334 -186 710C-164.043 720.81 83.2139 721.925 148.284 695.981C229.621 663.552 239.514 669.279 324 577.073Z" fill="url(#paint1_linear_33_40)"/>
<rect x="-23" y="416" width="488" height="337" fill="url(#paint2_linear_33_40)"/>
</g>
<defs>
<linearGradient id="paint0_linear_33_40" x1="215.5" y1="507" x2="215.5" y2="524" gradientUnits="userSpaceOnUse">
<stop stop-color="#FF8E1D"/>
<stop offset="1" stop-color="#995512"/>
</linearGradient>
<linearGradient id="paint1_linear_33_40" x1="258.113" y1="433.242" x2="393.849" y2="718.21" gradientUnits="userSpaceOnUse">
<stop stop-color="#1FDF85"/>
<stop offset="0.975371" stop-color="#115D79"/>
</linearGradient>
<linearGradient id="paint2_linear_33_40" x1="221" y1="416" x2="221" y2="753" gradientUnits="userSpaceOnUse">
<stop stop-color="#0000FF" stop-opacity="0"/>
<stop offset="1" stop-color="#001E1C" stop-opacity="0.75"/>
</linearGradient>
<clipPath id="clip0_33_40">
<rect width="411" height="731" fill="white"/>
</clipPath>
</defs>
</svg>
